<?xml version="1.0" encoding="UTF-8"?>
<svg id="Layer_2" data-name="Layer 2" xmlns="http://www.w3.org/2000/svg" viewBox="0 0 327.55 303.7">
  <defs>
    <style>
      .cls-1 {
        fill: #506ff2;
      }
    </style>
  </defs>
  <g id="Layer_1-2" data-name="Layer 1">
    <g>
      <g>
        <path class="cls-1" d="m128.14.58s-21.53-2.68-38.73,26.75c-18.74,32.06,1.88,57.54,4.2,60.11,2.32,2.56,21.43,17.9,38.51.79,17.08-17.11,15.4-41.56,12.08-60.45C139.51,1.12,128.14.58,128.14.58Z"/>
        <path class="cls-1" d="m180.17.09s21.47-3.08,39.22,26.01c19.34,31.7-.8,57.57-3.08,60.18-2.27,2.61-21.09,18.3-38.49,1.51-17.4-16.79-16.23-41.27-13.21-60.21C168.76,1.63,180.17.09,180.17.09Z"/>
        <path class="cls-1" d="m253.66,67.35s-13.25-3.32-27.2,20.18c-13.95,23.5-16.56,52.26,6.14,62.2,22.7,9.94,40.57-20.11,41.75-29.51,1.18-9.4,3.31-47.54-20.68-52.87Z"/>
        <path class="cls-1" d="m56.13,68.48s13.18-3.57,27.58,19.66c14.39,23.23,17.53,51.94-4.97,62.3-22.51,10.36-40.94-19.35-42.29-28.72-1.35-9.37-4.2-47.46,19.69-53.24Z"/>
        <path class="cls-1" d="m230.63,160.14c-10.01-10.25-15.2-11.93-24.47-20.89-9.28-8.96-11.16-25.47-26.46-33.8-15.31-8.33-29.63-6.91-32.87-5.87-2.98.96-11.16.25-25.33,15.34-2.25,2.4-4.18,5.09-5.79,7.96-3.08,5.49-8.96,15.43-13.1,18.93-5.84,4.94-37.53,26.64-28.35,55.86,9.18,29.22,47.96,28.28,67.02,23.08,19.06-5.21,29.73-.71,33.05.7,3.32,1.41,40.16,7.96,55.92-11.44,15.76-19.4,10.4-39.6.39-49.85Zm-67.1,34.91h-14.26v-14.06h14.26v14.06Zm-2.81-20.19h-8.74l-3.42-48.72h15.67l-3.52,48.72Z"/>
      </g>
      <path class="cls-1" d="m38.22,303.7l18.59-47.76h11.42l18.66,47.76h-9.82l-3.83-10.16h-21.86l-3.83,10.16h-9.33Zm16.01-17.82h16.08l-4.8-12.95c-.19-.46-.41-1.05-.66-1.78-.26-.72-.52-1.51-.8-2.37-.28-.86-.56-1.73-.84-2.61-.28-.88-.53-1.67-.77-2.37h-.35c-.28.93-.62,2-1.01,3.2-.39,1.21-.78,2.34-1.15,3.41-.37,1.07-.67,1.9-.91,2.51l-4.8,12.95Z"/>
      <path class="cls-1" d="m98.44,303.7l-12.95-47.76h9.61l7.73,30.7c.14.46.28,1.1.42,1.91.14.81.28,1.66.42,2.54.14.88.25,1.67.35,2.37h.35c.09-.56.17-1.16.24-1.81.07-.65.16-1.3.28-1.95.12-.65.22-1.24.31-1.78.09-.53.16-.96.21-1.29l7.17-30.7h11.63l7.17,30.7c.14.46.28,1.1.42,1.91.14.81.28,1.66.42,2.54.14.88.25,1.67.35,2.37h.35c.09-.51.2-1.08.31-1.71.12-.63.23-1.25.35-1.88.12-.63.24-1.22.38-1.78.14-.56.25-1.04.35-1.46l7.73-30.7h8.49l-13.02,47.76h-10.37l-7.73-31.33c-.14-.65-.29-1.4-.45-2.26-.16-.86-.3-1.72-.42-2.58-.12-.86-.22-1.61-.31-2.26h-.28c-.05.7-.13,1.5-.24,2.4-.12.91-.24,1.78-.38,2.61-.14.84-.28,1.53-.42,2.09l-7.66,31.33h-10.79Z"/>
      <path class="cls-1" d="m156.5,303.7v-47.76h9.05v39.89h23.95v7.87h-33Z"/>
      <path class="cls-1" d="m196.18,303.7v-47.76h37.24v7.73h-28.19v11.77h25.13v7.73h-25.13v12.81h28.61v7.73h-37.66Z"/>
      <path class="cls-1" d="m242.96,303.7v-47.76h25.13c3.53,0,6.45.6,8.77,1.81,2.32,1.21,4.06,2.92,5.22,5.15,1.16,2.23,1.74,4.85,1.74,7.87s-.7,5.86-2.09,8.25c-1.39,2.39-3.44,4.19-6.13,5.4l9.89,19.28h-9.89l-8.77-17.75h-14.83v17.75h-9.05Zm9.05-25.34h15.39c2.32,0,4.11-.67,5.36-2.02,1.25-1.35,1.88-3.2,1.88-5.57,0-1.53-.28-2.82-.84-3.86-.56-1.04-1.37-1.84-2.44-2.4-1.07-.56-2.39-.84-3.97-.84h-15.39v14.69Z"/>
      <rect class="cls-1" y="297.5" width="9.05" height="6.2"/>
      <path class="cls-1" d="m37.87,263.11c-1.16-2.27-2.89-4.04-5.19-5.29-2.3-1.25-5.21-1.88-8.74-1.88H0v39.39h9.05v-8.62h14.41c3.57,0,6.56-.64,8.95-1.91,2.39-1.28,4.19-3.07,5.4-5.4,1.21-2.32,1.81-5.04,1.81-8.15s-.58-5.87-1.74-8.15Zm-9.29,13.82c-1.28,1.37-3.07,2.05-5.39,2.05h-14.13v-15.32h14.13c1.62,0,2.97.3,4.04.91,1.07.6,1.88,1.46,2.44,2.58.56,1.11.84,2.48.84,4.11,0,2.41-.64,4.31-1.91,5.67Z"/>
      <rect class="cls-1" x="303.18" y="297.5" width="9.05" height="6.2"/>
      <polygon class="cls-1" points="287.94 255.94 287.94 263.74 303.18 263.74 303.18 295.33 312.23 295.33 312.23 263.74 327.55 263.74 327.55 255.94 287.94 255.94"/>
    </g>
  </g>
</svg>