<svg width="28" height="28" viewBox="0 0 28 28" fill="none" xmlns="http://www.w3.org/2000/svg">
<path d="M9.66667 6.35041V26.7302M18.3333 1V21.5842M1 9.3954C1 7.22818 1 6.14604 1.56767 5.51381C1.76857 5.2889 2.01298 5.1087 2.28556 4.98451C3.054 4.63752 4.06367 4.98009 6.083 5.66525C7.62422 6.18868 8.39411 6.45039 9.17411 6.42246C9.46025 6.41288 9.74475 6.37447 10.0234 6.30777C10.7818 6.12399 11.4578 5.66525 12.8098 4.74926L14.806 3.39364C16.5393 2.21741 17.4046 1.62929 18.3983 1.49549C19.3921 1.35875 20.3801 1.69398 22.3547 2.36444L24.0374 2.93491C25.4674 3.42011 26.1824 3.66271 26.5912 4.24053C27 4.81836 27 5.58586 27 7.11938V19.0714C27 21.2372 27 22.3208 26.4323 22.953C26.2312 23.1769 25.9868 23.356 25.7144 23.4794C24.946 23.8278 23.9363 23.4853 21.917 22.8001C20.3758 22.2767 19.6059 22.015 18.8259 22.0429C18.5398 22.0525 18.2553 22.0909 17.9766 22.1576C17.2182 22.3414 16.5422 22.8001 15.1902 23.7161L13.194 25.0717C11.4607 26.2479 10.5954 26.8361 9.60167 26.9699C8.60789 27.1066 7.61989 26.7714 5.64533 26.1009L3.96256 25.5304C2.53256 25.0452 1.81756 24.8026 1.40878 24.2248C1 23.647 1 22.878 1 21.346V9.3954Z" stroke="#A1A1A1" stroke-width="1.5"/>
</svg>
