<svg width="32" height="28" viewBox="0 0 32 28" fill="none" xmlns="http://www.w3.org/2000/svg">
<path d="M10.5249 0.500104C12.2949 0.245104 14.1699 2.1801 14.7099 4.8501C15.2499 7.5051 14.2749 9.8751 12.5049 10.1451C10.7499 10.4151 8.85986 8.4801 8.30486 5.8101C7.74986 3.1551 8.75486 0.785104 10.5249 0.500104ZM21.2499 0.500104C23.0349 0.785104 24.0249 3.1551 23.4999 5.8101C22.9299 8.4801 21.0549 10.4151 19.2849 10.1451C17.4999 9.8751 16.5249 7.5051 17.0799 4.8501C17.6199 2.1801 19.4949 0.245104 21.2499 0.500104ZM2.49986 7.4001C4.20986 6.6651 6.53486 8.0001 7.74986 10.3251C8.88986 12.6951 8.49986 15.1851 6.80486 15.9201C5.10986 16.6551 2.79986 15.3351 1.61486 12.9801C0.42986 10.6251 0.84986 8.1201 2.49986 7.4001ZM29.4999 7.4001C31.1499 8.1201 31.5699 10.6251 30.3849 12.9801C29.1999 15.3351 26.8899 16.6551 25.1949 15.9201C23.4999 15.1851 23.1099 12.6951 24.2499 10.3251C25.4649 8.0001 27.7899 6.6651 29.4999 7.4001ZM26.9949 23.5701C27.0549 24.9801 25.9749 26.5401 24.6849 27.1251C21.9999 28.3551 18.8199 25.8051 15.8349 25.8051C12.8499 25.8051 9.63986 28.4601 6.99986 27.1251C5.49986 26.3901 4.46486 24.4401 4.65986 22.8201C4.92986 20.5851 7.61486 19.3851 9.20486 17.7501C11.3199 15.6351 12.8199 11.6601 15.8349 11.6601C18.8349 11.6601 20.4249 15.5751 22.4499 17.7501C24.1149 19.5801 26.8899 21.1251 26.9949 23.5701Z" fill="#506FF2"/>
</svg>
