<svg width="26" height="27" viewBox="0 0 26 27" fill="none" xmlns="http://www.w3.org/2000/svg">
<path d="M13.0001 8.43748C12.3321 8.43748 11.6706 8.56842 11.0534 8.82284C10.4363 9.07725 9.87552 9.45015 9.40316 9.92025C8.93081 10.3903 8.55612 10.9484 8.30048 11.5626C8.04484 12.1768 7.91327 12.8351 7.91327 13.5C7.91327 14.1648 8.04484 14.8231 8.30048 15.4373C8.55612 16.0515 8.93081 16.6096 9.40316 17.0797C9.87552 17.5498 10.4363 17.9227 11.0534 18.1771C11.6706 18.4315 12.3321 18.5625 13.0001 18.5625C14.3492 18.5625 15.643 18.0291 16.597 17.0797C17.551 16.1303 18.0869 14.8426 18.0869 13.5C18.0869 12.1573 17.551 10.8696 16.597 9.92025C15.643 8.97085 14.3492 8.43748 13.0001 8.43748ZM9.60887 13.5C9.60887 13.0568 9.69659 12.6179 9.86701 12.2084C10.0374 11.7989 10.2872 11.4269 10.6021 11.1135C10.917 10.8001 11.2909 10.5515 11.7023 10.3819C12.1138 10.2123 12.5547 10.125 13.0001 10.125C13.4454 10.125 13.8864 10.2123 14.2978 10.3819C14.7093 10.5515 15.0831 10.8001 15.398 11.1135C15.7129 11.4269 15.9627 11.7989 16.1331 12.2084C16.3036 12.6179 16.3913 13.0568 16.3913 13.5C16.3913 14.3951 16.034 15.2535 15.398 15.8864C14.7621 16.5194 13.8995 16.875 13.0001 16.875C12.1007 16.875 11.2381 16.5194 10.6021 15.8864C9.96616 15.2535 9.60887 14.3951 9.60887 13.5ZM21.7155 22.9443L19.7621 22.0904C19.4841 21.9702 19.1817 21.9164 18.8791 21.9332C18.5764 21.95 18.2819 22.037 18.0191 22.1872C17.4912 22.4909 17.1543 23.0276 17.0876 23.6317L16.8525 25.7467C16.8288 25.9592 16.7398 26.1593 16.5975 26.3196C16.4553 26.4798 16.2668 26.5925 16.0578 26.6422C14.0467 27.1193 11.9512 27.1193 9.94008 26.6422C9.7313 26.5923 9.54306 26.4796 9.40105 26.3193C9.25903 26.159 9.17015 25.9591 9.14654 25.7467L8.91142 23.6351C8.87765 23.3379 8.77438 23.0527 8.60987 22.8025C8.44536 22.5522 8.2242 22.3438 7.96414 22.1939C7.70434 22.0444 7.41287 21.9578 7.11323 21.9409C6.81359 21.9241 6.51418 21.9777 6.23914 22.0972L4.28581 22.9511C4.08835 23.0374 3.8688 23.0605 3.65756 23.0172C3.44633 22.9738 3.25386 22.8662 3.1068 22.7092C1.70088 21.2098 0.654677 19.4128 0.0467992 17.4532C-0.0171184 17.2472 -0.015117 17.0266 0.052526 16.8218C0.120169 16.617 0.250108 16.4382 0.424354 16.3102L2.15048 15.0412C2.39348 14.8635 2.59106 14.6314 2.72724 14.3637C2.86342 14.0959 2.93438 13.8001 2.93438 13.5C2.93438 13.1999 2.86342 12.904 2.72724 12.6362C2.59106 12.3685 2.39348 12.1364 2.15048 11.9587L0.424354 10.6931C0.249883 10.565 0.119799 10.386 0.052146 10.181C-0.0155072 9.97598 -0.0173758 9.75509 0.0467992 9.54898C0.655936 7.59111 1.7029 5.79605 3.10906 4.29861C3.25625 4.14179 3.44879 4.03438 3.66001 3.99125C3.87124 3.94812 4.09072 3.9714 4.28807 4.05786L6.23236 4.90949C6.50901 5.02798 6.80969 5.08039 7.11033 5.0625C7.41098 5.04461 7.70324 4.95694 7.96373 4.80648C8.22422 4.65603 8.44571 4.44698 8.61047 4.19606C8.77523 3.94515 8.87868 3.65933 8.91254 3.36149L9.14993 1.24875C9.17383 1.03382 9.26456 0.831677 9.40945 0.670536C9.55435 0.509394 9.74617 0.397292 9.95817 0.349874C10.9541 0.129375 11.9703 0.012375 13.0148 0C14.0344 0.01125 15.0495 0.129375 16.0443 0.349874C16.2565 0.397202 16.4485 0.509425 16.5935 0.670817C16.7384 0.832209 16.829 1.03468 16.8525 1.24987L17.0887 3.36262C17.1397 3.83115 17.3626 4.2645 17.7147 4.57963C18.0668 4.89476 18.5233 5.0695 18.9969 5.07036C19.2602 5.07036 19.5214 5.01524 19.7655 4.90836L21.7098 4.05674C21.9072 3.97027 22.1267 3.94699 22.3379 3.99013C22.5491 4.03326 22.7416 4.14067 22.8888 4.29749C24.2947 5.79499 25.3412 7.59006 25.95 9.54785C26.014 9.7537 26.0122 9.97427 25.9447 10.179C25.8773 10.3838 25.7476 10.5627 25.5735 10.6908L23.8497 11.9587C23.358 12.3187 23.0607 12.8913 23.0607 13.5C23.0607 14.1075 23.358 14.6801 23.8508 15.0412L25.5758 16.308C25.933 16.5712 26.0845 17.0302 25.9534 17.4521C25.3447 19.4096 24.2985 21.2046 22.8934 22.7024C22.7463 22.8595 22.5538 22.9671 22.3426 23.0104C22.1314 23.0537 21.9129 23.0306 21.7155 22.9443ZM15.557 22.7216C15.8268 21.8809 16.4009 21.1699 17.1679 20.7269C17.6613 20.444 18.2145 20.2802 18.783 20.2488C19.3516 20.2173 19.9197 20.3191 20.4415 20.5458L21.9608 21.2096C22.9366 20.0851 23.692 18.7884 24.1877 17.3868L22.8436 16.4002C22.386 16.0658 22.0137 15.6281 21.7567 15.1243C21.4997 14.6206 21.3652 14.0638 21.3639 13.4988C21.3639 12.3435 21.9257 11.2713 22.8414 10.6008L22.8436 10.5997L24.1854 9.6131C23.6894 8.21178 22.9336 6.9155 21.9574 5.79148L20.4506 6.45073L20.4483 6.45186C19.9894 6.65436 19.4954 6.75786 18.9946 6.75786C18.1041 6.75653 17.2453 6.42852 16.5825 5.83658C15.9198 5.24464 15.4995 4.43032 15.4022 3.54937V3.54712L15.2179 1.90462C14.4907 1.76983 13.7533 1.69719 13.0136 1.6875C12.2646 1.69687 11.5178 1.76951 10.7811 1.90462L10.5968 3.54824C10.5334 4.10898 10.3387 4.64709 10.0284 5.11935C9.71807 5.5916 9.30076 5.98483 8.81 6.26744C8.31925 6.55005 7.76873 6.71415 7.20268 6.74657C6.63662 6.77899 6.07082 6.67882 5.55073 6.45411L4.04051 5.79261C3.06421 6.91659 2.30846 8.21288 1.81249 9.61423L3.15767 10.6008C3.6143 10.9355 3.9855 11.3723 4.24132 11.876C4.49715 12.3797 4.63043 12.9362 4.63043 13.5005C4.63043 14.0649 4.49715 14.6214 4.24132 15.1251C3.9855 15.6288 3.6143 16.0655 3.15767 16.4002L1.81249 17.388C2.30753 18.7915 3.06291 20.0901 4.03938 21.2163L5.55977 20.5526C6.07827 20.3267 6.64286 20.2253 7.20798 20.2566C7.77311 20.2878 8.32292 20.4509 8.81307 20.7326C9.30301 21.0142 9.71972 21.4064 10.0297 21.8775C10.3397 22.3485 10.5343 22.8854 10.598 23.4449V23.4506L10.7811 25.0976C12.2472 25.3844 13.7541 25.3844 15.2202 25.0976L15.4033 23.4472C15.4304 23.1997 15.4824 22.9556 15.5593 22.7216" fill="#506FF2"/>
</svg>
