<svg width="22" height="22" viewBox="0 0 22 22" fill="none" xmlns="http://www.w3.org/2000/svg">
<path d="M11 1.375C11.1823 1.375 11.3572 1.44743 11.4861 1.57636C11.6151 1.7053 11.6875 1.88016 11.6875 2.0625V3.4375C11.6875 3.61984 11.6151 3.7947 11.4861 3.92364C11.3572 4.05257 11.1823 4.125 11 4.125C10.8177 4.125 10.6428 4.05257 10.5139 3.92364C10.3849 3.7947 10.3125 3.61984 10.3125 3.4375V2.0625C10.3125 1.88016 10.3849 1.7053 10.5139 1.57636C10.6428 1.44743 10.8177 1.375 11 1.375ZM11 15.125C12.094 15.125 13.1432 14.6904 13.9168 13.9168C14.6904 13.1432 15.125 12.094 15.125 11C15.125 9.90598 14.6904 8.85677 13.9168 8.08318C13.1432 7.3096 12.094 6.875 11 6.875C9.90598 6.875 8.85677 7.3096 8.08318 8.08318C7.3096 8.85677 6.875 9.90598 6.875 11C6.875 12.094 7.3096 13.1432 8.08318 13.9168C8.85677 14.6904 9.90598 15.125 11 15.125ZM19.9375 11.6875C20.1198 11.6875 20.2947 11.6151 20.4236 11.4861C20.5526 11.3572 20.625 11.1823 20.625 11C20.625 10.8177 20.5526 10.6428 20.4236 10.5139C20.2947 10.3849 20.1198 10.3125 19.9375 10.3125H18.5625C18.3802 10.3125 18.2053 10.3849 18.0764 10.5139C17.9474 10.6428 17.875 10.8177 17.875 11C17.875 11.1823 17.9474 11.3572 18.0764 11.4861C18.2053 11.6151 18.3802 11.6875 18.5625 11.6875H19.9375ZM11 17.875C11.1823 17.875 11.3572 17.9474 11.4861 18.0764C11.6151 18.2053 11.6875 18.3802 11.6875 18.5625V19.9375C11.6875 20.1198 11.6151 20.2947 11.4861 20.4236C11.3572 20.5526 11.1823 20.625 11 20.625C10.8177 20.625 10.6428 20.5526 10.5139 20.4236C10.3849 20.2947 10.3125 20.1198 10.3125 19.9375V18.5625C10.3125 18.3802 10.3849 18.2053 10.5139 18.0764C10.6428 17.9474 10.8177 17.875 11 17.875ZM3.4375 11.6875C3.61984 11.6875 3.7947 11.6151 3.92364 11.4861C4.05257 11.3572 4.125 11.1823 4.125 11C4.125 10.8177 4.05257 10.6428 3.92364 10.5139C3.7947 10.3849 3.61984 10.3125 3.4375 10.3125H2.0625C1.88016 10.3125 1.7053 10.3849 1.57636 10.5139C1.44743 10.6428 1.375 10.8177 1.375 11C1.375 11.1823 1.44743 11.3572 1.57636 11.4861C1.7053 11.6151 1.88016 11.6875 2.0625 11.6875H3.4375ZM4.32575 4.32575C4.38961 4.26173 4.46548 4.21093 4.549 4.17627C4.63253 4.14161 4.72207 4.12377 4.8125 4.12377C4.90293 4.12377 4.99247 4.14161 5.076 4.17627C5.15952 4.21093 5.23539 4.26173 5.29925 4.32575L6.67425 5.70075C6.73817 5.76467 6.78888 5.84056 6.82347 5.92407C6.85806 6.00759 6.87587 6.0971 6.87587 6.1875C6.87587 6.2779 6.85806 6.36741 6.82347 6.45093C6.78888 6.53444 6.73817 6.61033 6.67425 6.67425C6.61033 6.73817 6.53444 6.78888 6.45093 6.82347C6.36741 6.85806 6.2779 6.87587 6.1875 6.87587C6.0971 6.87587 6.00759 6.85806 5.92407 6.82347C5.84056 6.78888 5.76467 6.73817 5.70075 6.67425L4.32575 5.29925C4.26173 5.23539 4.21093 5.15952 4.17627 5.076C4.14161 4.99247 4.12377 4.90293 4.12377 4.8125C4.12377 4.72207 4.14161 4.63253 4.17627 4.549C4.21093 4.46548 4.26173 4.38961 4.32575 4.32575ZM5.29925 17.6742C5.23542 17.7382 5.15962 17.7889 5.07619 17.8235C4.99276 17.8582 4.90332 17.876 4.81299 17.8761C4.72265 17.8761 4.63319 17.8584 4.54971 17.8239C4.46623 17.7894 4.39036 17.7388 4.32644 17.6749C4.26252 17.6111 4.21179 17.5353 4.17717 17.4519C4.14254 17.3684 4.12468 17.279 4.12462 17.1887C4.12455 17.0983 4.14228 17.0089 4.17679 16.9254C4.2113 16.8419 4.26192 16.766 4.32575 16.7021L5.70075 15.3271C5.76458 15.2632 5.84038 15.2125 5.92381 15.1779C6.00724 15.1432 6.09668 15.1254 6.18701 15.1253C6.27735 15.1252 6.36681 15.143 6.45029 15.1775C6.53377 15.212 6.60964 15.2626 6.67356 15.3264C6.73748 15.3903 6.78821 15.4661 6.82283 15.5495C6.85746 15.6329 6.87532 15.7224 6.87538 15.8127C6.87545 15.903 6.85772 15.9925 6.82321 16.076C6.7887 16.1595 6.73808 16.2353 6.67425 16.2992L5.29925 17.6742ZM17.6742 4.32575C17.6104 4.26173 17.5345 4.21093 17.451 4.17627C17.3675 4.14161 17.2779 4.12377 17.1875 4.12377C17.0971 4.12377 17.0075 4.14161 16.924 4.17627C16.8405 4.21093 16.7646 4.26173 16.7008 4.32575L15.3258 5.70075C15.1967 5.82984 15.1241 6.00493 15.1241 6.1875C15.1241 6.37007 15.1967 6.54516 15.3258 6.67425C15.4548 6.80334 15.6299 6.87587 15.8125 6.87587C15.9951 6.87587 16.1702 6.80334 16.2992 6.67425L17.6742 5.29925C17.7383 5.23539 17.7891 5.15952 17.8237 5.076C17.8584 4.99247 17.8762 4.90293 17.8762 4.8125C17.8762 4.72207 17.8584 4.63253 17.8237 4.549C17.7891 4.46548 17.7383 4.38961 17.6742 4.32575ZM16.7008 17.6742C16.8297 17.8033 17.0046 17.8759 17.187 17.8761C17.3695 17.8762 17.5445 17.8038 17.6736 17.6749C17.8027 17.546 17.8753 17.3711 17.8754 17.1887C17.8755 17.0062 17.8032 16.8312 17.6742 16.7021L16.2992 15.3271C16.1703 15.198 15.9954 15.1254 15.813 15.1253C15.6305 15.1252 15.4555 15.1975 15.3264 15.3264C15.1973 15.4553 15.1247 15.6303 15.1246 15.8127C15.1245 15.9951 15.1968 16.1702 15.3258 16.2992L16.7008 17.6742Z" fill="#506FF2"/>
</svg>
